HIERARCHY
ROOT Hips
{
	OFFSET 0.000000 71.427986 0.000000
	CHANNELS 6 Xposition Yposition Zposition Xrotation Yrotation Zrotation
	JOINT Pelvis
	{
		OFFSET 0.000000 0.000000 0.000000
		CHANNELS 3 Xrotation Yrotation Zrotation
		JOINT LeftUpLeg
		{
			OFFSET 6.797100 -2.508499 -1.318700
			CHANNELS 3 Xrotation Yrotation Zrotation
			JOINT LeftLeg
			{
				OFFSET 0.069008 -29.241863 0.690200
				CHANNELS 3 Xrotation Yrotation Zrotation
				JOINT LeftFoot
				{
					OFFSET -0.069008 -29.568123 -0.266800
					CHANNELS 3 Xrotation Yrotation Zrotation
					JOINT LeftToeBase
					{
						OFFSET 3.145500 -8.631000 16.059900
						CHANNELS 3 Xrotation Yrotation Zrotation
						End Site
						{
							OFFSET 0.000000 18.501587 0.000000
						}
					}
				}
			}
			JOINT Left_ShortSleeve
			{
				OFFSET 0.265923 -10.480953 1.153800
				CHANNELS 3 Xrotation Yrotation Zrotation
				End Site
				{
					OFFSET 1.725763 19.823879 0.000000
				}
			}
		}
		JOINT RightUpLeg
		{
			OFFSET -6.797100 -2.508499 -1.318700
			CHANNELS 3 Xrotation Yrotation Zrotation
			JOINT RightLeg
			{
				OFFSET -0.082453 -29.241932 0.688000
				CHANNELS 3 Xrotation Yrotation Zrotation
				JOINT RightFoot
				{
					OFFSET 0.082453 -29.568058 -0.264600
					CHANNELS 3 Xrotation Yrotation Zrotation
					JOINT RightToeBase
					{
						OFFSET -3.115300 -8.682800 16.113400
						CHANNELS 3 Xrotation Yrotation Zrotation
						End Site
						{
							OFFSET 0.000000 18.567114 0.000000
						}
					}
				}
			}
			JOINT Right_ShortSleeve
			{
				OFFSET -0.265923 -10.480953 1.153800
				CHANNELS 3 Xrotation Yrotation Zrotation
				End Site
				{
					OFFSET -1.725766 19.823910 0.000000
				}
			}
		}
	}
	JOINT Spine
	{
		OFFSET 0.000000 13.368103 0.470500
		CHANNELS 3 Xrotation Yrotation Zrotation
		JOINT Spine1
		{
			OFFSET 0.147000 13.837402 0.538800
			CHANNELS 3 Xrotation Yrotation Zrotation
			JOINT Spine2
			{
				OFFSET 0.168000 16.242897 -1.435500
				CHANNELS 3 Xrotation Yrotation Zrotation
				JOINT Neck
				{
					OFFSET 0.217200 18.631500 -1.679100
					CHANNELS 3 Xrotation Yrotation Zrotation
					JOINT Head
					{
						OFFSET 0.000000 6.599396 1.385900
						CHANNELS 3 Xrotation Yrotation Zrotation
						JOINT Hat
						{
							OFFSET -0.532200 27.220596 -10.096100
							CHANNELS 3 Xrotation Yrotation Zrotation
							End Site
							{
								OFFSET 0.000000 22.029861 0.000000
							}
						}
						JOINT HairD
						{
							OFFSET -10.777400 17.437393 -1.325900
							CHANNELS 3 Xrotation Yrotation Zrotation
							JOINT HairD1
							{
								OFFSET -3.290299 -11.051193 1.062200
								CHANNELS 3 Xrotation Yrotation Zrotation
								End Site
								{
									OFFSET 0.000000 11.579437 0.000000
								}
							}
						}
						JOINT HairB
						{
							OFFSET -10.777400 17.437393 1.467900
							CHANNELS 3 Xrotation Yrotation Zrotation
							JOINT HairB1
							{
								OFFSET -1.561200 -12.956299 3.590200
								CHANNELS 3 Xrotation Yrotation Zrotation
								End Site
								{
									OFFSET 0.000000 13.534866 0.000000
								}
							}
						}
						JOINT HairA
						{
							OFFSET 9.713100 17.437393 1.467900
							CHANNELS 3 Xrotation Yrotation Zrotation
							JOINT HairA1
							{
								OFFSET 1.561200 -12.956299 3.590200
								CHANNELS 3 Xrotation Yrotation Zrotation
								End Site
								{
									OFFSET 0.000000 13.534866 0.000000
								}
							}
						}
						JOINT HairC
						{
							OFFSET 9.713100 17.437393 -1.325900
							CHANNELS 3 Xrotation Yrotation Zrotation
							JOINT HairC1
							{
								OFFSET 3.290300 -11.051193 1.062200
								CHANNELS 3 Xrotation Yrotation Zrotation
								End Site
								{
									OFFSET 0.000000 11.579437 0.000000
								}
							}
						}
					}
				}
				JOINT LeftShoulder
				{
					OFFSET 5.101800 15.108002 -2.763700
					CHANNELS 3 Xrotation Yrotation Zrotation
					JOINT LeftArm
					{
						OFFSET 9.825497 2.506317 -1.597400
						CHANNELS 3 Xrotation Yrotation Zrotation
						JOINT LeftForeArm
						{
							OFFSET 21.966244 0.000000 0.000000
							CHANNELS 3 Xrotation Yrotation Zrotation
							JOINT LeftHand
							{
								OFFSET 33.879036 0.000000 0.000000
								CHANNELS 3 Xrotation Yrotation Zrotation
								JOINT LeftHandThumb1
								{
									OFFSET 6.715286 -2.359680 3.363841
									CHANNELS 3 Xrotation Yrotation Zrotation
									JOINT LeftHandThumb2
									{
										OFFSET 2.507072 -1.447464 1.447461
										CHANNELS 3 Xrotation Yrotation Zrotation
										JOINT LeftHandThumb3
										{
											OFFSET 2.898338 -1.673355 1.673357
											CHANNELS 3 Xrotation Yrotation Zrotation
											End Site
											{
												OFFSET -0.295959 3.727692 -0.131651
											}
										}
									}
								}
								JOINT LeftHandIndex1
								{
									OFFSET 14.190811 -0.254547 3.840278
									CHANNELS 3 Xrotation Yrotation Zrotation
									JOINT LeftHandIndex2
									{
										OFFSET 3.551727 0.000000 -0.000000
										CHANNELS 3 Xrotation Yrotation Zrotation
										JOINT LeftHandIndex3
										{
											OFFSET 2.894196 0.000000 0.000000
											CHANNELS 3 Xrotation Yrotation Zrotation
											End Site
											{
												OFFSET -1.000603 2.690872 0.366626
											}
										}
									}
								}
								JOINT LeftHandMiddle1
								{
									OFFSET 13.776489 0.000000 0.000000
									CHANNELS 3 Xrotation Yrotation Zrotation
									JOINT LeftHandMiddle2
									{
										OFFSET 3.438232 0.000000 0.000000
										CHANNELS 3 Xrotation Yrotation Zrotation
										JOINT LeftHandMiddle3
										{
											OFFSET 3.691551 0.000000 0.000000
											CHANNELS 3 Xrotation Yrotation Zrotation
											End Site
											{
												OFFSET -1.082298 3.499527 0.457670
											}
										}
									}
								}
								JOINT LeftHandRing1
								{
									OFFSET 13.966164 -0.268127 -3.067488
									CHANNELS 3 Xrotation Yrotation Zrotation
									JOINT LeftHandRing2
									{
										OFFSET 3.162567 0.000000 0.000000
										CHANNELS 3 Xrotation Yrotation Zrotation
										JOINT LeftHandRing3
										{
											OFFSET 3.324348 0.000000 0.000000
											CHANNELS 3 Xrotation Yrotation Zrotation
											End Site
											{
												OFFSET -0.861900 3.184998 0.405154
											}
										}
									}
								}
								JOINT LeftHandPinky1
								{
									OFFSET 13.131393 -0.168503 -5.746925
									CHANNELS 3 Xrotation Yrotation Zrotation
									JOINT LeftHandPinky2
									{
										OFFSET 2.849182 0.000000 0.000000
										CHANNELS 3 Xrotation Yrotation Zrotation
										JOINT LeftHandPinky3
										{
											OFFSET 2.805038 0.000000 0.000000
											CHANNELS 3 Xrotation Yrotation Zrotation
											End Site
											{
												OFFSET -0.882500 2.642609 0.325652
											}
										}
									}
								}
							}
							JOINT Left_Sleeve
							{
								OFFSET 6.592125 -0.646545 0.805568
								CHANNELS 3 Xrotation Yrotation Zrotation
								End Site
								{
									OFFSET -0.000179 20.275787 -0.000000
								}
							}
						}
					}
				}
				JOINT RightShoulder
				{
					OFFSET -5.731700 15.108002 -2.763700
					CHANNELS 3 Xrotation Yrotation Zrotation
					JOINT RightArm
					{
						OFFSET -9.825497 2.506317 -1.597400
						CHANNELS 3 Xrotation Yrotation Zrotation
						JOINT RightForeArm
						{
							OFFSET -21.966242 0.000000 0.000000
							CHANNELS 3 Xrotation Yrotation Zrotation
							JOINT RightHand
							{
								OFFSET -33.879032 0.000000 0.000000
								CHANNELS 3 Xrotation Yrotation Zrotation
								JOINT RightHandThumb1
								{
									OFFSET -6.715286 -2.359680 3.363841
									CHANNELS 3 Xrotation Yrotation Zrotation
									JOINT RightHandThumb2
									{
										OFFSET -2.507072 -1.447464 1.447461
										CHANNELS 3 Xrotation Yrotation Zrotation
										JOINT RightHandThumb3
										{
											OFFSET -2.898338 -1.673355 1.673357
											CHANNELS 3 Xrotation Yrotation Zrotation
											End Site
											{
												OFFSET 0.295959 3.727692 -0.131651
											}
										}
									}
								}
								JOINT RightHandIndex1
								{
									OFFSET -14.190811 -0.254547 3.840278
									CHANNELS 3 Xrotation Yrotation Zrotation
									JOINT RightHandIndex2
									{
										OFFSET -3.551727 0.000000 -0.000000
										CHANNELS 3 Xrotation Yrotation Zrotation
										JOINT RightHandIndex3
										{
											OFFSET -2.894196 0.000000 0.000000
											CHANNELS 3 Xrotation Yrotation Zrotation
											End Site
											{
												OFFSET 1.000603 2.690872 0.366626
											}
										}
									}
								}
								JOINT RightHandMiddle1
								{
									OFFSET -13.776489 0.000000 0.000000
									CHANNELS 3 Xrotation Yrotation Zrotation
									JOINT RightHandMiddle2
									{
										OFFSET -3.438232 0.000000 0.000000
										CHANNELS 3 Xrotation Yrotation Zrotation
										JOINT RightHandMiddle3
										{
											OFFSET -3.691551 0.000000 0.000000
											CHANNELS 3 Xrotation Yrotation Zrotation
											End Site
											{
												OFFSET 1.082298 3.499527 0.457670
											}
										}
									}
								}
								JOINT RightHandRing1
								{
									OFFSET -13.966164 -0.268127 -3.067488
									CHANNELS 3 Xrotation Yrotation Zrotation
									JOINT RightHandRing2
									{
										OFFSET -3.162567 0.000000 0.000000
										CHANNELS 3 Xrotation Yrotation Zrotation
										JOINT RightHandRing3
										{
											OFFSET -3.324348 0.000000 0.000000
											CHANNELS 3 Xrotation Yrotation Zrotation
											End Site
											{
												OFFSET 0.861900 3.184998 0.405154
											}
										}
									}
								}
								JOINT RightHandPinky1
								{
									OFFSET -13.131393 -0.168503 -5.746925
									CHANNELS 3 Xrotation Yrotation Zrotation
									JOINT RightHandPinky2
									{
										OFFSET -2.849182 0.000000 0.000000
										CHANNELS 3 Xrotation Yrotation Zrotation
										JOINT RightHandPinky3
										{
											OFFSET -2.805038 0.000000 0.000000
											CHANNELS 3 Xrotation Yrotation Zrotation
											End Site
											{
												OFFSET 0.882500 2.642609 0.325652
											}
										}
									}
								}
							}
							JOINT Right_Sleeve
							{
								OFFSET -6.592125 -0.646545 0.805568
								CHANNELS 3 Xrotation Yrotation Zrotation
								End Site
								{
									OFFSET 0.000179 20.275787 -0.000000
								}
							}
						}
					}
				}
				JOINT Bind_Right_JacketString
				{
					OFFSET -3.534800 11.969597 7.200700
					CHANNELS 3 Xrotation Yrotation Zrotation
					JOINT Bind_Right_JacketString1
					{
						OFFSET -0.319900 -6.102600 2.794100
						CHANNELS 3 Xrotation Yrotation Zrotation
						End Site
						{
							OFFSET 0.000000 6.719452 0.000000
						}
					}
				}
				JOINT Bind_Left_JacketString
				{
					OFFSET 2.904800 11.969597 7.200700
					CHANNELS 3 Xrotation Yrotation Zrotation
					JOINT Bind_Left_JacketString1
					{
						OFFSET 0.364800 -5.904503 3.186800
						CHANNELS 3 Xrotation Yrotation Zrotation
						End Site
						{
							OFFSET 0.000000 6.719513 0.000000
						}
					}
				}
				JOINT HairE
				{
					OFFSET 5.915200 17.612701 -11.592200
					CHANNELS 3 Xrotation Yrotation Zrotation
					JOINT HairE1
					{
						OFFSET 0.289200 -7.171898 -1.284500
						CHANNELS 3 Xrotation Yrotation Zrotation
						End Site
						{
							OFFSET 0.000000 7.291756 0.000000
						}
					}
				}
				JOINT HairF
				{
					OFFSET -0.864800 17.612701 -11.592200
					CHANNELS 3 Xrotation Yrotation Zrotation
					JOINT HairF1
					{
						OFFSET 0.000000 -14.087097 -2.127501
						CHANNELS 3 Xrotation Yrotation Zrotation
						End Site
						{
							OFFSET 0.000000 14.246841 0.000000
						}
					}
				}
				JOINT HairG
				{
					OFFSET -8.087700 17.612701 -11.592200
					CHANNELS 3 Xrotation Yrotation Zrotation
					JOINT HairG1
					{
						OFFSET -0.293600 -6.081398 -0.910100
						CHANNELS 3 Xrotation Yrotation Zrotation
						End Site
						{
							OFFSET 0.000000 6.156120 0.000000
						}
					}
				}
			}
		}
	}
	JOINT Pouch
	{
		OFFSET 0.000000 4.394501 10.847300
		CHANNELS 3 Xrotation Yrotation Zrotation
		End Site
		{
			OFFSET 0.000000 21.880577 0.000000
		}
	}
	JOINT Bag
	{
		OFFSET -13.229000 4.813004 -0.593300
		CHANNELS 3 Xrotation Yrotation Zrotation
		End Site
		{
			OFFSET 0.000000 21.880577 0.000000
		}
	}
	JOINT OccupyGuyFacialAnim_Joint
	{
		OFFSET 1.000000 -70.206398 -1.655000
		CHANNELS 3 Xrotation Yrotation Zrotation
		End Site
		{
			OFFSET 0.000000 21.880577 0.000000
		}
	}
}
MOTION
Frames: 4
Frame Time: 0.016667
-16.620516 98.070343 24.270277 2.233340 -19.988332 2.127311 -0.000000 -0.000001 -0.000000 -20.007545 10.543470 2.541879 38.994947 6.392268 4.358263 18.868597 -0.343589 -4.307410 0.000002 0.000000 0.000000 0.000001 0.000001 -0.000000 0.276311 -7.304460 -1.070137 17.562242 -23.063445 3.676170 30.208472 -3.170035 -2.854732 -0.000002 0.000002 -0.000001 0.000000 -0.000000 -0.000000 -1.335629 -0.058811 -0.780124 -2.672069 -0.088748 -1.714352 -2.672070 -0.088751 -1.714355 -29.250149 2.152611 0.925381 -6.741644 1.385351 2.203541 -0.000003 -0.000001 -0.000001 -0.000003 -0.000001 -0.000001 -0.000003 -0.000001 -0.000001 -0.000003 -0.000001 -0.000001 0.000001 0.000002 0.000002 -0.000003 -0.000001 -0.000001 0.000001 0.000002 0.000002 -0.000003 -0.000001 -0.000001 -0.000003 -0.000001 -0.000001 3.677175 6.194746 24.143602 -59.663383 -29.699302 18.551123 331.726387 -50.304787 364.575636 9.712935 12.043597 4.406375 -18.855680 8.933429 3.057172 -10.184080 7.391050 11.736447 -0.000001 0.000001 0.000000 -0.592715 -8.809686 -64.466884 -7.414324 -3.196032 -73.590268 0.000002 0.000002 -0.000002 -4.669422 -3.546330 -64.557507 -4.343526 -4.390802 -63.402249 0.000003 -0.000003 0.000000 -8.499394 6.196379 -65.422284 -0.143907 -6.140963 -71.299184 -0.000003 0.000001 0.000001 -11.696387 6.569881 -64.444604 0.747950 -7.748551 -64.679760 -0.000001 0.000002 0.000001 0.000001 0.000003 -0.000001 -5.618863 -8.488118 -29.945264 -79.202484 30.402094 25.861307 -28.766943 45.497338 -9.943800 18.101893 -7.770116 -17.702090 -9.927556 -3.135320 -3.423716 9.147232 -6.167970 1.841525 -0.000001 -0.000002 -0.000003 -5.800728 7.899899 47.461110 -1.705270 0.304423 43.209816 -0.000001 -0.000001 0.000004 -3.405849 2.123216 34.452410 -0.819705 0.602202 26.448270 0.000001 -0.000000 0.000001 -6.121040 -2.660795 25.197529 0.241169 1.204277 20.283565 -0.000000 0.000000 -0.000000 -8.974040 -11.015636 18.858275 0.726514 6.448862 30.513870 -0.000001 0.000001 -0.000001 -0.000000 0.000001 -0.000000 -0.000000 0.000001 0.000000 -0.000000 -0.000001 -0.000000 -0.000000 0.000001 -0.000000 -0.000000 0.000001 -0.000000 -0.000000 0.000001 0.000000 -0.000000 -0.000001 -0.000000 -0.000000 0.000001 -0.000000 -0.000000 0.000001 -0.000000 -0.000000 0.000001 0.000000 -0.000000 -0.000001 -0.000000 -0.000000 -0.000001 -0.000000 -0.000000 -0.000001 -0.000000 -0.000000 -0.000001 -0.000000 
-16.630943 97.507477 24.681055 1.981182 -19.322182 1.853214 0.000000 0.000003 -0.000000 -20.811803 10.145241 2.113106 39.699194 8.312896 4.093264 21.981997 -0.266666 -2.978182 -0.000000 0.000000 0.000000 0.000000 -0.000000 -0.000000 -0.983674 -7.607245 -1.687222 18.564343 -22.316769 3.700952 32.475094 -3.089451 -3.350452 -0.000001 -0.000000 0.000002 0.000000 0.000002 -0.000000 -1.423762 -0.128333 -0.721677 -2.849546 -0.229104 -1.624430 -2.849544 -0.229104 -1.624431 -27.415806 2.071721 -0.405984 -8.884805 0.776540 3.209522 -0.000002 0.000000 0.000001 -0.000002 0.000000 0.000001 -0.000002 0.000000 0.000001 -0.000002 0.000000 -0.000000 -0.000001 0.000001 -0.000001 -0.000002 0.000000 -0.000000 -0.000001 0.000001 -0.000001 -0.000002 0.000000 0.000001 -0.000002 0.000000 0.000001 4.781804 6.071384 25.311125 -58.312788 -25.193202 16.875543 334.030046 -55.829556 367.584361 10.718693 15.468679 -3.727586 -21.309482 8.848095 3.603920 -11.046011 7.810728 12.734305 -0.000001 -0.000000 -0.000000 -0.668612 -9.385940 -69.496970 -8.126676 -3.034172 -78.334408 0.000002 0.000003 0.000002 -5.910788 -3.911911 -68.776112 -4.727757 -4.456444 -66.846447 0.000002 0.000000 0.000002 -9.746262 6.167345 -68.259654 -0.270662 -6.498654 -74.555777 -0.000001 0.000000 -0.000004 -13.460167 6.392949 -66.874519 0.796669 -7.975017 -66.777120 0.000001 -0.000002 0.000003 -0.000000 0.000001 0.000001 -3.148152 -6.622059 -28.188288 -74.921165 31.517242 20.078721 -28.646404 45.441095 -7.798858 14.499149 -7.568638 -15.891468 -11.314178 -0.640379 -7.794861 7.524582 -9.236256 1.695815 -0.000001 -0.000001 0.000002 -6.559484 7.393445 54.528860 -2.449473 0.693827 50.819780 0.000003 0.000000 0.000000 -5.103886 3.187941 44.972855 -1.503201 1.527330 37.885686 0.000002 0.000000 0.000001 -7.748221 -2.737545 35.791721 0.247996 1.908887 31.704973 0.000000 -0.000001 -0.000004 -9.849997 -10.151352 30.707229 1.148583 7.284854 39.051835 -0.000000 0.000001 -0.000003 0.000000 -0.000000 -0.000000 -0.000000 0.000001 -0.000000 -0.000000 0.000001 -0.000000 -0.000000 0.000001 -0.000000 -0.000000 0.000001 -0.000000 -0.000000 0.000001 -0.000000 -0.000000 0.000001 -0.000000 -0.000000 0.000001 -0.000000 -0.000000 0.000001 -0.000000 -0.000000 0.000001 -0.000000 -0.000000 0.000001 -0.000000 0.000000 0.000003 -0.000000 0.000000 0.000003 -0.000000 0.000000 0.000003 -0.000000 
-16.631189 96.816803 25.088041 1.646082 -18.526634 1.545927 0.000000 -0.000000 -0.000000 -21.451672 9.643628 1.900510 40.404073 10.404254 3.404402 24.964741 -0.164422 -1.292809 -0.000000 -0.000000 -0.000001 0.000000 -0.000002 -0.000001 -2.137985 -7.586902 -2.141406 19.633025 -21.029910 3.549869 34.808970 -2.633297 -4.027567 -0.000002 0.000000 0.000002 -0.000000 0.000002 -0.000000 -1.508968 -0.163148 -0.660461 -3.020491 -0.300867 -1.519637 -3.020491 -0.300873 -1.519636 -26.025215 2.006420 -1.891977 -10.487882 0.012928 4.301349 0.000003 -0.000001 -0.000001 0.000003 -0.000001 -0.000001 0.000003 -0.000001 -0.000000 0.000003 -0.000001 -0.000001 -0.000000 -0.000001 -0.000001 0.000003 -0.000001 -0.000001 -0.000000 -0.000001 -0.000001 0.000003 -0.000001 -0.000001 0.000003 -0.000001 -0.000001 5.846714 6.266295 26.599550 -57.037199 -19.937317 14.143170 336.297314 -62.699525 371.221656 12.075448 18.775977 -12.001250 -22.924210 8.761528 3.939450 -11.613925 8.069319 13.395149 -0.000001 -0.000003 -0.000001 -0.755060 -9.793345 -72.801675 -8.582126 -2.886326 -81.445197 0.000001 0.000000 -0.000000 -6.750416 -4.067558 -71.547884 -4.980435 -4.484666 -69.106508 0.000001 -0.000000 0.000002 -10.571548 6.213358 -70.118565 -0.370418 -6.734657 -76.693974 -0.000001 0.000001 0.000001 -14.634855 6.353589 -68.460571 0.821166 -8.127465 -68.153922 -0.000002 0.000001 -0.000001 0.000000 0.000001 0.000002 -2.023508 -4.492274 -27.140003 -68.184351 31.329429 12.866690 -29.783030 45.104059 -2.566834 9.883239 -7.225269 -16.008770 -12.809649 2.188568 -12.808846 5.561960 -12.734985 1.298116 -0.000000 0.000001 0.000002 -7.288506 6.738039 62.692346 -3.350650 0.967346 59.638849 0.000000 -0.000000 -0.000002 -7.419769 3.777872 57.205536 -2.526061 2.313662 51.151000 0.000002 -0.000000 -0.000001 -9.662710 -3.338253 48.032680 0.154351 2.763910 44.927137 0.000001 -0.000000 -0.000003 -11.600125 -9.546222 44.232192 1.459228 8.447026 48.947308 -0.000000 0.000001 0.000002 -0.000000 -0.000000 -0.000000 -0.000000 -0.000001 -0.000000 -0.000000 0.000001 -0.000000 -0.000000 -0.000001 -0.000000 -0.000000 -0.000001 -0.000000 -0.000000 -0.000001 -0.000000 -0.000000 0.000001 -0.000000 -0.000000 -0.000001 -0.000000 -0.000000 -0.000001 -0.000000 -0.000000 -0.000001 -0.000000 -0.000000 0.000001 -0.000000 0.000000 -0.000000 -0.000000 0.000000 -0.000000 -0.000000 0.000000 -0.000000 -0.000000 
-16.631836 96.044556 25.502073 1.243400 -17.585480 1.215791 -0.000000 -0.000000 -0.000000 -21.907391 9.531524 1.710695 41.004453 12.030722 2.993815 27.579788 0.197429 0.394504 -0.000000 -0.000000 -0.000000 0.000002 0.000001 0.000000 -3.247100 -7.525137 -2.011670 20.578446 -20.198447 2.224519 37.040987 -1.508519 -3.727876 -0.000001 0.000001 0.000000 0.000000 -0.000002 -0.000000 -1.645226 -0.150896 -0.542998 -3.292606 -0.278826 -1.303055 -3.292606 -0.278820 -1.303055 -24.829281 1.898696 -2.852156 -11.555614 -0.586101 4.627742 -0.000001 0.000000 0.000001 -0.000001 0.000000 0.000001 -0.000001 0.000000 0.000001 -0.000001 0.000000 0.000001 -0.000003 -0.000000 -0.000001 -0.000001 0.000000 0.000001 -0.000003 -0.000000 -0.000001 -0.000001 0.000000 0.000001 -0.000001 0.000000 0.000001 6.717991 6.329315 27.810083 -55.092579 -13.574159 10.508934 339.072037 -71.280162 375.947409 13.106036 22.007757 -18.493763 -23.505083 8.724705 4.055216 -11.818375 8.158938 13.633691 0.000003 0.000001 -0.000000 -0.793885 -9.944877 -73.989868 -8.742889 -2.825333 -82.562302 0.000001 0.000001 -0.000000 -7.055842 -4.106890 -72.544027 -5.071187 -4.491924 -69.918420 -0.000000 0.000001 -0.000003 -10.868886 6.242507 -70.785615 -0.409500 -6.819503 -77.462453 -0.000002 -0.000002 0.000002 -15.058812 6.352193 -69.028535 0.828520 -8.182923 -68.648667 0.000000 0.000001 -0.000002 0.000001 -0.000001 0.000001 -0.962621 -3.617260 -26.818758 -63.904254 30.681118 10.710912 -28.415933 46.120402 -0.431027 6.073488 -6.296540 -14.958005 -14.232498 4.972283 -17.779597 3.459918 -16.185136 0.633619 0.000000 0.000000 0.000003 -7.858082 6.046801 70.836165 -4.257026 1.049422 68.456718 -0.000002 -0.000001 0.000000 -9.917048 3.592951 69.474765 -3.708014 2.725229 64.428799 0.000000 -0.000000 -0.000003 -11.472226 -4.499092 60.238601 -0.069177 3.650699 58.140483 0.000000 0.000000 0.000002 -13.977418 -9.646198 57.544446 1.523858 9.778983 58.870766 -0.000002 -0.000001 0.000002 -0.000000 -0.000000 -0.000000 -0.000000 0.000001 0.000000 -0.000000 -0.000001 -0.000000 -0.000000 0.000001 0.000000 -0.000000 0.000001 0.000000 -0.000000 0.000001 0.000000 -0.000000 -0.000001 -0.000000 -0.000000 0.000001 0.000000 -0.000000 0.000001 0.000000 -0.000000 0.000001 0.000000 -0.000000 -0.000001 -0.000000 -0.000000 -0.000000 -0.000000 -0.000000 -0.000000 -0.000000 -0.000000 -0.000000 -0.000000 
